<?xml version="1.0" standalone="no"?><!DOCTYPE svg PUBLIC "-//W3C//DTD SVG 1.1//EN" "http://www.w3.org/Graphics/SVG/1.1/DTD/svg11.dtd"><svg t="1540728062084" class="icon" style="" viewBox="0 0 1024 1024" version="1.1" xmlns="http://www.w3.org/2000/svg" p-id="6581" xmlns:xlink="http://www.w3.org/1999/xlink" width="256" height="256"><defs><style type="text/css"></style></defs><path d="M0 512a512 512 0 0 0 1024 0 512 512 0 1 0-1024 0z" fill="#DBDBDB" p-id="6582"></path><path d="M750.445714 846.994286a492.982857 492.982857 0 0 0-83.382857-23.405715l-55.588571-8.777142a389.12 389.12 0 0 1-99.474286 11.702857 389.12 389.12 0 0 1-99.474286-11.702857l-58.514285 8.777142a488.594286 488.594286 0 0 0-78.994286 21.942858 377.417143 377.417143 0 0 0-87.771429 61.44 512 512 0 0 0 649.508572 0 374.491429 374.491429 0 0 0-86.308572-59.977143z" fill="#1296DB" p-id="6583"></path><path d="M737.28 444.708571a24.868571 24.868571 0 0 0-20.48 2.925715 283.794286 283.794286 0 0 0-19.017143-111.177143H326.217143a288.182857 288.182857 0 0 0-17.554286 115.565714 24.868571 24.868571 0 0 0-20.48-2.925714c-19.017143 7.314286-24.868571 40.96-13.165714 74.605714s35.108571 55.588571 54.125714 48.274286a405.211429 405.211429 0 0 0 70.217143 136.045714l14.628571 17.554286v90.697143a389.12 389.12 0 0 0 99.474286 11.702857 389.12 389.12 0 0 0 99.474286-11.702857h-1.462857v-90.697143l16.091428-17.554286a403.748571 403.748571 0 0 0 70.217143-134.582857 59.977143 59.977143 0 0 0 54.125714-54.125714c10.24-35.108571 4.388571-68.754286-14.628571-74.605715z" fill="#EED5A1" p-id="6584"></path><path d="M699.245714 337.92A381.805714 381.805714 0 0 0 716.8 453.485714s87.771429-257.462857-77.531429-257.462857c0 0-431.542857-150.674286-330.605714 263.314286a103.862857 103.862857 0 0 0 7.314286 20.48c68.754286-100.937143 295.497143-68.754286 383.268571-141.897143z" fill="#5C4948" p-id="6585"></path><path d="M321.828571 934.765714h92.16V950.857143H321.828571v-16.091429zM512 827.977143a112.64 112.64 0 0 0 74.605714 46.811428s27.794286-36.571429 24.868572-58.514285zM512 827.977143a112.64 112.64 0 0 1-73.142857 45.348571s-27.794286-36.571429-24.868572-58.514285z" fill="#B9C9C2" p-id="6586"></path><path d="M503.222857 854.308571a8.777143 8.777143 0 0 0 19.017143 0 8.777143 8.777143 0 0 0-19.017143 0zM503.222857 889.417143a8.777143 8.777143 0 1 0 8.777143-8.777143 8.777143 8.777143 0 0 0-8.777143 8.777143zM503.222857 925.988571a8.777143 8.777143 0 1 0 8.777143-8.777142 8.777143 8.777143 0 0 0-8.777143 8.777142z" fill="#56A57E" p-id="6587"></path></svg>